<?xml version="1.0" encoding="UTF-8"?>
<svg id="Layer_1" data-name="Layer 1" xmlns="http://www.w3.org/2000/svg" viewBox="0 0 177 173">
  <defs>
    <style>
      .cls-1 {
        fill: #ff9b42;
      }

      .cls-1, .cls-2 {
        stroke-width: 0px;
      }

      .cls-2 {
        fill: #fff;
      }
    </style>
  </defs>
  <circle class="cls-1" cx="87.5" cy="87" r="84"/>
  <g>
    <ellipse class="cls-2" cx="53.26" cy="80.88" rx="24.51" ry="28.39" transform="translate(-24.33 22.93) rotate(-19.88)"/>
    <path class="cls-1" d="M56.32,45.57c9.77,16.19,8.05,34.49-3.83,40.87-11.88,6.38-29.43-1.57-39.2-17.76-9.77-16.19,5.7-14.94,17.58-21.32,11.88-6.38,15.68-17.98,25.45-1.79Z"/>
  </g>
  <g>
    <ellipse class="cls-2" cx="116.49" cy="80.88" rx="24.51" ry="28.39" transform="translate(-20.56 44.44) rotate(-19.88)"/>
    <path class="cls-1" d="M119.55,45.57c9.77,16.19,8.05,34.49-3.83,40.87-11.88,6.38-29.43-1.57-39.2-17.76-9.77-16.19,5.7-14.94,17.58-21.32,11.88-6.38,15.68-17.98,25.45-1.79Z"/>
  </g>
</svg>