<?xml version="1.0" encoding="UTF-8"?>
<svg id="Layer_1" data-name="Layer 1" xmlns="http://www.w3.org/2000/svg" viewBox="0 0 143 238">
  <defs>
    <style>
      .cls-1 {
        fill: #ff9b42;
      }

      .cls-1, .cls-2 {
        stroke-width: 0px;
      }

      .cls-2 {
        fill: #fff;
      }
    </style>
  </defs>
  <rect class="cls-1" x="34.99" y="95.21" width="25.84" height="131.36" rx="12.92" ry="12.92"/>
  <rect class="cls-1" x="69.23" y="95.64" width="25.84" height="131.36" rx="12.92" ry="12.92"/>
  <circle class="cls-1" cx="66" cy="65.5" r="57.5"/>
  <g>
    <ellipse class="cls-2" cx="42.56" cy="61.31" rx="16.78" ry="19.43" transform="translate(-18.31 18.13) rotate(-19.88)"/>
    <path class="cls-1" d="M44.66,37.14c6.69,11.08,5.51,23.61-2.62,27.97s-20.15-1.08-26.83-12.16,3.9-10.23,12.03-14.6,10.73-12.3,17.42-1.22Z"/>
  </g>
  <g>
    <ellipse class="cls-2" cx="85.85" cy="61.31" rx="16.78" ry="19.43" transform="translate(-15.73 32.85) rotate(-19.88)"/>
    <path class="cls-1" d="M87.94,37.14c6.69,11.08,5.51,23.61-2.62,27.97s-20.15-1.08-26.83-12.16,3.9-10.23,12.03-14.6,10.73-12.3,17.42-1.22Z"/>
  </g>
</svg>