<?xml version="1.0" encoding="UTF-8"?>
<svg id="Layer_1" data-name="Layer 1" xmlns="http://www.w3.org/2000/svg" viewBox="0 0 172 190">
  <defs>
    <style>
      .cls-1 {
        fill: #ff9b42;
        stroke-width: 0px;
      }
    </style>
  </defs>
  <path class="cls-1" d="M65.56,43.55l24.31,33.46,14.82-38.61c.59-1.53,2.85-1.11,2.85.53v41.36l34.69-22.52c1.37-.89,2.96.78,2,2.1l-24.31,33.46,41.3,2.17c1.63.09,1.93,2.37.38,2.88l-39.33,12.78,32.14,26.03c1.27,1.03.17,3.05-1.38,2.55l-39.33-12.78,10.7,39.95c.42,1.58-1.66,2.57-2.62,1.25l-24.31-33.46-14.82,38.61c-.59,1.53-2.85,1.11-2.85-.53v-41.36l-34.69,22.52c-1.37.89-2.96-.78-2-2.1l24.31-33.46-41.3-2.17c-1.63-.09-1.93-2.37-.38-2.88l39.33-12.78-32.14-26.03c-1.27-1.03-.17-3.05,1.38-2.55l39.33,12.78-10.7-39.95c-.42-1.58,1.66-2.57,2.62-1.25Z"/>
</svg>